<svg width="48" height="42" viewBox="0 0 48 42" fill="none" xmlns="http://www.w3.org/2000/svg">
<path d="M42.7978 4.49229C41.6912 3.38513 40.3772 2.50686 38.9311 1.90764C37.4849 1.30842 35.9349 1 34.3695 1C32.8041 1 31.254 1.30842 29.8079 1.90764C28.3617 2.50686 27.0478 3.38513 25.9411 4.49229L23.6445 6.78896L21.3478 4.49229C19.1125 2.25696 16.0807 1.00116 12.9195 1.00116C9.75823 1.00116 6.72646 2.25696 4.49113 4.49229C2.2558 6.72762 1 9.75938 1 12.9206C1 16.0819 2.2558 19.1136 4.49113 21.349L6.7878 23.6456L23.6445 40.5023L40.5011 23.6456L42.7978 21.349C43.905 20.2423 44.7832 18.9284 45.3824 17.4822C45.9817 16.0361 46.2901 14.486 46.2901 12.9206C46.2901 11.3552 45.9817 9.80518 45.3824 8.35902C44.7832 6.91286 43.905 5.59893 42.7978 4.49229V4.49229Z" stroke="#212121" stroke-width="2" stroke-linecap="round" stroke-linejoin="round"/>
</svg>
